<svg width="1366" height="768" viewBox="0 0 1366 768" fill="none" xmlns="http://www.w3.org/2000/svg">
  <rect width="1366" height="768" fill="#F3F3F3"/>
  <rect x="70" y="120" width="1226" height="540" rx="30" fill="#0A0A0A"/>

  <rect x="120" y="250" width="280" height="280" rx="18" fill="#F5F5F5"/>
  <text x="140" y="312" fill="#0A0A0A" font-family="Inter, Arial, sans-serif" font-size="42" font-weight="600">Candidate</text>
  <text x="140" y="355" fill="#0A0A0A" font-family="Inter, Arial, sans-serif" font-size="42" font-weight="600">Signals</text>

  <rect x="440" y="200" width="630" height="390" rx="20" fill="#EFEFEF"/>
  <rect x="480" y="290" width="540" height="36" rx="10" fill="#DFDFDF"/>
  <rect x="480" y="350" width="540" height="36" rx="10" fill="#DFDFDF"/>
  <rect x="480" y="410" width="540" height="36" rx="10" fill="#DFDFDF"/>
  <rect x="480" y="470" width="540" height="36" rx="10" fill="#DFDFDF"/>

  <rect x="640" y="230" width="260" height="130" rx="14" fill="#F8F8F8" stroke="#D3D3D3"/>
  <text x="675" y="290" fill="#0A0A0A" font-family="Inter, Arial, sans-serif" font-size="42" font-weight="600">Role-fit</text>
  <text x="675" y="330" fill="#555555" font-family="Inter, Arial, sans-serif" font-size="30">Confidence Signals</text>

  <rect x="1030" y="250" width="280" height="360" rx="20" fill="#F1F1F1"/>
  <text x="1060" y="320" fill="#0A0A0A" font-family="Inter, Arial, sans-serif" font-size="42" font-weight="600">Candidate Score</text>
  <rect x="1060" y="370" width="22" height="120" rx="8" fill="#0A0A0A"/>
  <rect x="1110" y="390" width="22" height="100" rx="8" fill="#BDBDBD"/>
  <rect x="1160" y="340" width="22" height="150" rx="8" fill="#0A0A0A"/>
  <rect x="1210" y="365" width="22" height="125" rx="8" fill="#BDBDBD"/>

  <text x="130" y="190" fill="#F3F3F3" font-family="Inter, Arial, sans-serif" font-size="46" font-weight="600">Recruiter Trust Dashboard</text>
</svg>
