<svg width="1366" height="768" viewBox="0 0 1366 768" fill="none" xmlns="http://www.w3.org/2000/svg">
  <rect width="1366" height="768" fill="#F3F3F3"/>

  <g stroke="#8A8A8A" stroke-width="2">
    <path d="M510 240L760 320L1060 230"/>
    <path d="M760 320L620 430L910 540"/>
    <path d="M1060 230L1210 380L1180 560"/>
    <path d="M620 430L360 430L510 240"/>
  </g>

  <g fill="#0A0A0A">
    <circle cx="510" cy="240" r="28"/>
    <circle cx="760" cy="320" r="32"/>
    <circle cx="1060" cy="230" r="28"/>
    <circle cx="620" cy="430" r="30"/>
    <circle cx="910" cy="540" r="30"/>
    <circle cx="1210" cy="380" r="28"/>
  </g>

  <circle cx="360" cy="430" r="34" fill="#B0B0B0"/>
  <circle cx="760" cy="320" r="44" fill="url(#glow)"/>

  <text x="920" y="405" fill="#0A0A0A" font-family="Inter, Arial, sans-serif" font-size="52" font-weight="600">&lt;/&gt;</text>
  <text x="470" y="200" fill="#4B4B4B" font-family="Inter, Arial, sans-serif" font-size="46" font-weight="500">🛠</text>
  <text x="668" y="250" fill="#4B4B4B" font-family="Inter, Arial, sans-serif" font-size="44" font-weight="500">⚙</text>
  <text x="1000" y="300" fill="#4B4B4B" font-family="Inter, Arial, sans-serif" font-size="44" font-weight="500">🎨</text>

  <defs>
    <radialGradient id="glow" cx="0" cy="0" r="1" gradientUnits="userSpaceOnUse" gradientTransform="translate(760 320) rotate(90) scale(44)">
      <stop stop-color="#0A0A0A" stop-opacity="0.35"/>
      <stop offset="1" stop-color="#0A0A0A" stop-opacity="0"/>
    </radialGradient>
  </defs>
</svg>
